<?xml version="1.0" standalone="no"?>
<!DOCTYPE svg PUBLIC "-//W3C//DTD SVG 20010904//EN"
 "http://www.w3.org/TR/2001/REC-SVG-20010904/DTD/svg10.dtd">
<svg version="1.0" xmlns="http://www.w3.org/2000/svg"
 width="2000.000000pt" height="205.000000pt" viewBox="0 0 2000.000000 205.000000"
 preserveAspectRatio="xMidYMid meet">

<g transform="translate(0.000000,205.000000) scale(0.100000,-0.100000)"
fill="#000000" stroke="none">
<path d="M10045 1706 c-86 -39 -146 -134 -168 -262 -6 -35 -14 -64 -17 -64 -4
0 -12 19 -19 43 -27 90 -89 167 -135 167 -17 -1 -15 -3 9 -14 80 -35 145 -178
145 -321 l0 -73 -53 -30 c-29 -16 -59 -37 -66 -46 -19 -22 -32 -20 -116 15
-99 41 -191 101 -215 141 -41 68 -17 163 56 228 39 33 147 90 174 90 8 0 22 5
30 10 34 22 -58 -4 -125 -36 -123 -57 -179 -127 -179 -224 -1 -45 5 -63 28
-96 16 -22 48 -53 70 -69 l40 -29 -52 -11 c-90 -21 -161 -93 -181 -187 -6 -26
-8 -60 -5 -76 6 -28 2 -32 -67 -73 -184 -107 -336 -172 -452 -193 l-38 -7 21
41 c12 23 26 69 31 101 12 78 -3 130 -49 171 -32 27 -40 30 -84 26 -55 -6 -96
-37 -128 -98 -19 -34 -19 -35 -20 -8 0 52 50 185 99 259 62 95 83 114 110 100
42 -23 101 -5 120 36 16 35 13 51 -4 26 -21 -31 -78 -40 -110 -19 -53 35 -54
106 -1 126 33 12 91 -5 111 -33 11 -16 15 -17 15 -6 0 9 -9 28 -21 43 -26 33
-84 36 -122 6 -30 -24 -51 -81 -43 -115 5 -20 -3 -37 -39 -80 -49 -61 -98
-150 -125 -230 l-17 -50 -18 55 c-20 62 -68 161 -97 202 -15 21 -17 32 -8 47
18 34 11 41 -15 16 -35 -36 -96 -35 -124 1 -27 34 -27 68 0 95 29 29 95 21
126 -16 25 -28 31 -18 11 18 -17 32 -39 46 -73 47 -84 1 -136 -113 -81 -177
19 -21 35 -28 77 -33 51 -5 54 -7 82 -55 34 -57 87 -195 87 -226 0 -20 -3 -19
-31 9 -35 34 -105 62 -154 62 -17 0 -51 -10 -75 -22 -42 -21 -45 -26 -48 -66
-4 -56 34 -126 112 -205 l59 -60 -54 6 c-140 17 -285 71 -474 178 -278 157
-401 199 -636 219 -68 6 -125 13 -126 14 -2 2 8 23 22 48 52 94 40 192 -29
224 -80 39 -143 -21 -131 -126 6 -57 40 -140 56 -140 6 0 8 -4 5 -8 -3 -5 -47
-12 -98 -15 -172 -11 -344 -67 -523 -169 -186 -107 -232 -131 -310 -163 -86
-36 -208 -69 -294 -80 l-54 -7 26 34 c37 48 57 111 57 180 0 98 -47 158 -124
158 -60 0 -107 -36 -149 -115 l-16 -30 5 35 c17 107 73 234 144 325 27 35 40
44 55 39 63 -19 84 -16 115 14 16 17 30 39 29 49 0 11 -3 13 -6 5 -7 -17 -57
-42 -86 -42 -49 0 -90 67 -67 110 24 45 102 44 142 -2 26 -30 23 2 -3 36 -15
20 -29 26 -58 26 -67 0 -118 -61 -107 -128 4 -30 0 -41 -35 -80 -51 -59 -96
-138 -124 -221 -14 -39 -25 -60 -29 -51 -3 8 -17 47 -31 85 -14 39 -42 97 -61
129 -32 53 -34 62 -23 88 15 38 5 95 -22 124 -34 36 -83 32 -125 -10 -29 -29
-34 -41 -34 -79 0 -64 35 -97 101 -97 47 0 49 -2 75 -45 36 -62 81 -172 90
-220 l7 -39 -43 37 c-56 48 -129 65 -195 47 -47 -13 -85 -49 -85 -80 0 -39 66
-146 128 -208 l64 -64 -44 7 c-54 9 -181 49 -242 76 l-46 20 0 72 c0 97 -9
147 -27 147 -11 0 -13 -17 -7 -100 4 -55 3 -100 -1 -100 -5 0 -28 11 -52 25
-42 26 -43 27 -43 81 0 79 -28 194 -47 194 -12 0 -14 -7 -9 -32 19 -106 29
-188 25 -192 -6 -6 -210 99 -257 133 l-33 23 48 23 c94 43 140 125 110 197
-42 101 -182 127 -291 53 -41 -28 -41 -29 -21 45 8 30 14 64 14 75 0 11 -7 -7
-15 -40 -21 -89 -33 -114 -83 -175 -25 -30 -46 -56 -47 -58 -1 -2 -16 4 -33
12 -16 9 -41 16 -54 16 -20 0 -29 11 -55 68 -17 37 -36 97 -43 134 -32 175 84
325 224 287 76 -20 99 -53 108 -154 l6 -70 1 65 c2 84 -19 127 -78 158 -141
72 -283 -35 -297 -224 l-6 -74 -26 27 c-44 44 -118 73 -189 73 -77 0 -121 -19
-166 -72 -42 -49 -61 -114 -60 -200 3 -116 57 -177 162 -179 72 -1 76 -12 17
-43 -100 -52 -175 -156 -175 -240 0 -39 35 -100 65 -114 62 -29 143 -9 255 63
l65 41 -3 -75 c-3 -66 -1 -80 20 -111 29 -43 99 -80 153 -80 81 1 167 64 196
145 14 39 13 38 84 11 127 -48 248 24 262 155 5 50 -2 80 -32 153 -7 16 10 9
81 -28 49 -27 91 -50 92 -51 12 -11 -33 -117 -63 -153 -29 -33 -33 -43 -21
-48 8 -3 20 -3 26 1 20 12 70 98 81 138 5 21 13 37 17 35 83 -41 84 -42 78
-73 -4 -16 -20 -46 -36 -67 -33 -40 -38 -58 -16 -58 19 0 59 48 76 91 7 19 15
36 16 37 1 2 43 -13 93 -33 50 -20 133 -45 184 -55 267 -54 262 -53 344 -41
43 6 119 15 170 21 178 20 302 66 558 207 168 92 293 144 406 167 81 17 249
33 249 24 0 -3 -7 -22 -15 -41 -17 -41 -20 -104 -6 -139 22 -59 94 -98 144
-79 58 22 67 134 17 214 l-31 50 78 -7 c43 -4 116 -15 163 -26 147 -32 214
-61 515 -229 200 -111 365 -156 610 -167 304 -14 507 39 808 208 l88 50 48
-46 c61 -56 136 -81 225 -74 l61 5 -30 -60 c-39 -79 -42 -188 -8 -253 40 -76
107 -114 199 -114 53 0 134 25 168 51 41 32 77 102 83 163 l6 55 45 -50 c88
-98 180 -116 335 -66 106 34 151 67 183 134 36 73 29 145 -24 245 -2 4 54 -25
125 -64 156 -86 266 -130 404 -159 88 -20 133 -23 299 -23 312 1 448 39 757
212 269 150 412 197 643 209 l125 6 -27 -31 c-36 -43 -51 -95 -45 -150 13
-117 138 -119 189 -4 21 47 20 76 -7 158 -6 19 -3 20 27 17 190 -21 330 -73
590 -220 183 -103 330 -154 502 -173 50 -6 122 -15 159 -21 71 -12 67 -12 337
37 106 20 216 60 326 118 55 30 86 41 88 33 28 -97 83 -174 108 -149 9 9 6 18
-15 39 -30 32 -57 91 -57 125 0 16 12 30 40 46 21 12 41 22 43 22 2 0 9 -24
16 -54 13 -60 59 -139 90 -155 32 -18 37 7 8 37 -30 31 -62 100 -71 154 -6 32
-3 39 18 53 34 23 187 84 227 91 l34 6 -35 -25 c-20 -13 -49 -49 -65 -78 -25
-46 -30 -65 -30 -125 0 -60 4 -77 27 -111 48 -73 144 -101 233 -67 71 27 70
28 84 -11 29 -81 115 -144 196 -145 54 0 124 37 153 80 21 31 23 45 20 111
l-3 75 65 -41 c112 -72 193 -92 255 -63 30 14 65 75 65 114 0 84 -75 188 -175
240 -59 31 -55 42 17 43 105 2 159 63 162 179 1 86 -18 151 -60 200 -45 53
-89 72 -166 72 -71 0 -145 -29 -189 -73 l-26 -27 -6 74 c-8 115 -57 196 -139
231 -52 21 -106 19 -158 -7 -59 -31 -80 -74 -78 -158 l1 -65 6 70 c9 101 32
134 109 154 81 22 161 -19 200 -102 44 -93 37 -193 -20 -318 l-30 -66 -61 -6
-62 -6 -38 42 c-45 50 -54 69 -78 162 -9 39 -18 61 -18 50 0 -11 6 -45 14 -75
20 -74 20 -73 -21 -45 -79 54 -177 58 -240 10 -45 -34 -68 -86 -59 -132 7 -41
63 -106 105 -123 17 -7 30 -15 30 -19 0 -3 -28 -14 -63 -24 -34 -10 -92 -32
-129 -48 -36 -16 -69 -29 -72 -29 -7 0 12 112 30 173 4 12 0 17 -14 17 -21 0
-38 -57 -49 -161 -5 -55 -7 -57 -50 -78 -25 -12 -47 -20 -50 -17 -2 2 0 37 6
77 6 47 7 77 1 83 -19 19 -30 -11 -36 -101 l-7 -92 -91 -44 c-118 -58 -214
-92 -316 -111 -107 -21 -105 -21 -77 17 78 103 74 268 -7 318 -68 42 -146 12
-197 -75 l-30 -51 7 45 c16 106 86 253 159 334 23 25 29 27 51 17 57 -26 118
4 129 64 5 27 4 28 -6 9 -24 -47 -96 -57 -134 -19 -42 41 -29 98 28 118 25 9
80 -16 102 -44 l17 -24 -7 30 c-10 47 -33 65 -81 65 -36 0 -47 -5 -74 -36 -26
-30 -31 -43 -29 -79 3 -37 -3 -50 -45 -106 -52 -69 -95 -150 -116 -214 -19
-62 -22 -62 -40 -3 -9 31 -38 95 -64 143 -43 82 -45 90 -35 125 30 100 -60
178 -136 118 -89 -70 -51 -194 57 -186 39 2 43 0 70 -42 31 -49 82 -175 93
-230 l7 -35 -28 26 c-61 56 -141 79 -211 60 -46 -12 -83 -51 -83 -85 0 -43 55
-132 122 -200 l69 -69 -53 7 c-29 4 -100 23 -158 42 -103 34 -158 61 -370 181
-184 104 -342 160 -502 179 l-58 6 25 29 c30 37 45 88 45 157 0 46 -4 58 -30
84 -27 26 -36 30 -68 25 -92 -15 -121 -121 -62 -232 17 -31 30 -58 30 -59 0 0
-21 0 -46 2 -71 6 -290 -16 -384 -39 -107 -25 -224 -75 -365 -154 -158 -89
-250 -134 -330 -162 -77 -27 -198 -54 -192 -44 49 90 67 184 48 244 -7 20 -28
50 -47 67 -64 56 -147 33 -204 -57 -37 -57 -40 -36 -9 63 27 87 79 187 127
242 37 42 37 42 75 30 77 -24 139 41 122 128 -14 79 -96 101 -154 43 -26 -26
-31 -38 -31 -79 0 -43 -6 -57 -50 -115 -59 -78 -90 -137 -116 -218 l-18 -57
-26 79 c-15 44 -44 108 -64 143 -30 50 -36 68 -31 95 l6 33 -25 -25 c-36 -36
-97 -35 -125 1 -27 34 -27 68 0 95 29 29 95 21 126 -16 20 -23 23 -24 23 -7 0
29 -45 72 -75 72 -41 0 -81 -26 -99 -64 -24 -51 -20 -83 14 -118 26 -25 36
-29 76 -27 45 3 46 2 75 -46 29 -50 81 -176 93 -228 l6 -27 -45 34 c-47 36
-99 56 -147 56 -39 0 -107 -29 -118 -51 -12 -22 -13 -69 -1 -88 6 -10 8 -1 4
25 -4 31 -1 43 16 58 48 43 160 12 220 -61 32 -39 68 -133 73 -193 3 -32 1
-35 -22 -31 -70 9 -156 56 -217 116 -49 49 -59 56 -46 31 9 -17 43 -59 76 -93
48 -50 56 -63 40 -63 -40 0 -216 50 -293 83 -59 26 -351 182 -379 204 -2 1 8
12 24 24 73 58 104 117 105 197 0 136 -133 240 -296 230 l-71 -5 19 59 c10 35
18 90 18 132 0 182 -131 274 -285 202z m156 -43 c48 -28 72 -92 67 -172 -7
-97 -41 -164 -130 -256 l-73 -76 -60 15 c-33 9 -74 13 -92 10 l-33 -6 0 70 c0
134 45 289 105 360 56 67 154 92 216 55z m1540 -339 c44 -39 3 -114 -62 -114
-30 0 -77 35 -80 60 -5 45 2 61 33 74 35 15 79 7 109 -20z m-6483 -24 c62 -38
31 -120 -45 -120 -47 0 -83 32 -83 73 0 64 63 87 128 47z m8911 5 c47 -24 55
-69 19 -102 -42 -39 -108 -31 -133 17 -36 70 37 125 114 85z m-10357 -21 c28
-9 64 -34 96 -65 58 -59 112 -151 93 -157 -25 -8 -79 -63 -91 -92 -10 -24 -18
-30 -44 -30 -57 0 -211 20 -238 31 -74 30 -69 221 9 291 43 39 103 47 175 22z
m12536 -11 c46 -34 75 -98 76 -167 1 -74 -17 -121 -52 -135 -31 -12 -183 -31
-254 -31 -42 0 -49 3 -62 28 -8 15 -28 40 -45 56 l-30 29 21 41 c46 91 119
165 192 193 43 17 122 10 154 -14z m-9339 -60 c20 -23 23 -35 19 -78 -4 -53
-51 -145 -74 -145 -40 0 -84 121 -70 194 13 68 77 83 125 29z m6035 22 c40
-30 30 -191 -15 -231 -25 -23 -43 -13 -74 40 -48 82 -42 160 14 191 33 18 51
18 75 0z m-2559 -14 c150 -68 128 -237 -40 -307 -42 -17 -111 -21 -192 -9 -49
6 -53 9 -53 34 0 38 -18 88 -49 135 l-25 39 47 43 c87 78 221 107 312 65z
m-5972 -22 c157 -81 55 -229 -157 -229 -91 0 -129 9 -149 35 -17 24 -17 24 46
88 97 100 195 139 260 106z m11138 -25 c27 -15 69 -50 93 -78 l43 -51 -32 -38
c-31 -36 -34 -37 -102 -37 -92 0 -169 24 -210 65 -56 56 -41 116 42 164 30 18
109 5 166 -25z m-6013 -120 c44 -12 52 -18 46 -32 -4 -9 -9 -49 -12 -88 -3
-58 0 -81 18 -120 l21 -49 -21 -17 c-25 -20 -112 -48 -149 -48 -79 0 -158 46
-191 110 -52 102 11 232 126 259 44 10 84 6 162 -15z m-2611 -165 c36 -54 43
-134 16 -168 -17 -21 -24 -22 -49 -14 -16 5 -40 25 -52 44 -19 27 -23 43 -19
79 13 107 56 132 104 59z m5989 6 c30 -73 10 -160 -44 -184 -35 -17 -59 -5
-73 36 -9 27 -9 45 1 77 30 102 88 138 116 71z m-9118 -39 c6 -25 26 -61 43
-80 l31 -36 -30 -36 c-72 -87 -229 -184 -298 -184 -42 0 -81 33 -95 80 -30 99
84 228 249 281 82 26 86 25 100 -25z m472 24 c64 -18 126 -64 149 -112 66
-137 -29 -241 -165 -179 -43 20 -74 54 -74 82 0 9 -13 42 -29 72 -28 54 -28
54 -12 106 l16 53 40 -6 c22 -3 56 -10 75 -16z m871 -6 c50 -25 108 -103 129
-172 11 -35 20 -77 20 -93 l0 -28 -52 16 c-120 35 -204 96 -243 177 -32 65
-27 92 18 112 35 15 85 11 128 -12z m3055 -9 c22 -13 53 -42 69 -64 33 -48 65
-140 65 -187 l0 -33 -52 15 c-141 42 -258 149 -258 236 0 34 4 41 33 53 40 18
88 11 143 -20z m5825 25 c80 -22 154 -117 178 -228 18 -85 19 -83 -41 -66 -86
25 -140 56 -195 110 -99 98 -94 179 12 193 6 0 26 -4 46 -9z m1594 -17 c3 -16
14 -45 24 -65 19 -37 19 -39 -1 -90 -35 -93 -42 -103 -88 -125 -110 -56 -200
-2 -188 111 10 87 76 151 186 181 64 18 61 18 67 -12z m486 7 c164 -50 280
-180 250 -280 -14 -47 -53 -80 -95 -80 -71 0 -221 94 -302 188 l-37 43 27 52
c14 29 26 62 26 75 0 18 5 22 34 22 19 0 62 -9 97 -20z m-10590 0 c32 -18 52
-68 45 -117 -15 -109 -88 -183 -181 -183 l-33 0 -4 63 c-2 34 0 76 4 92 13 50
63 120 99 138 40 20 45 20 70 7z m3054 -13 c73 -62 17 -237 -88 -276 -16 -6
-44 -11 -63 -11 l-34 0 0 75 c0 86 13 125 61 179 52 59 84 68 124 33z m2946
-6 c24 -25 29 -38 29 -78 0 -75 -43 -152 -100 -180 -24 -13 -61 -23 -82 -23
l-38 0 0 73 c0 104 41 184 115 225 31 17 44 14 76 -17z m2914 19 c81 -31 58
-203 -37 -273 -16 -12 -49 -22 -80 -25 l-53 -4 0 78 c1 65 6 88 27 129 33 64
55 84 115 104 1 1 13 -3 28 -9z m-4100 -80 c98 -42 150 -124 143 -222 -3 -47
-10 -64 -34 -89 -37 -40 -108 -74 -199 -95 -58 -13 -78 -14 -115 -4 -63 16
-150 106 -179 184 -29 78 -27 88 20 111 45 21 106 87 116 123 5 23 6 23 107
17 59 -4 117 -14 141 -25z m-6265 -95 c5 -13 21 -42 35 -64 14 -22 25 -54 25
-71 0 -74 -60 -148 -129 -157 -127 -17 -180 99 -112 244 l30 62 58 4 c32 2 64
4 71 5 7 1 17 -9 22 -23z m11858 -44 c73 -145 20 -265 -109 -248 -68 9 -129
83 -129 157 0 16 14 52 30 78 17 27 30 54 30 60 0 9 79 20 130 18 8 -1 30 -30
48 -65z m-6161 3 c26 -8 65 -14 88 -14 l42 0 17 -58 c54 -195 -36 -342 -209
-342 -121 0 -183 56 -193 175 -4 56 -1 71 25 127 17 35 51 87 77 116 l48 52
30 -21 c16 -12 50 -28 75 -35z"/>
</g>
</svg>
